<svg xmlns="http://www.w3.org/2000/svg" viewBox="0 0 480 320" width="480" font-family="ui-monospace,Menlo,Consolas,monospace">
<rect width="480" height="320" rx="6" fill="#000"/>
<text x="12" y="32" font-size="26" font-weight="700" fill="#00ff00">Seattle Makers</text>
<text x="12" y="81" font-size="17" fill="#ffffff">Place spool to begin</text>
<text x="12" y="109" font-size="17" fill="#dc8c00">Scale not calibrated</text>
<text x="12" y="137" font-size="17" fill="#dc8c00">Calibrate in web app</text>
<text x="12" y="165" font-size="17" fill="#7b7d7b">Web app:</text>
<text x="12" y="193" font-size="17" fill="#00ffff">weighstation.local</text>
<text x="12" y="221" font-size="17" fill="#7b7d7b">or 192.168.1.42</text>
<rect x="336" y="74" width="132" height="132" fill="#fff"/><rect x="352" y="90" width="28" height="4" fill="#000"/><rect x="388" y="90" width="12" height="4" fill="#000"/><rect x="404" y="90" width="4" height="4" fill="#000"/><rect x="416" y="90" width="4" height="4" fill="#000"/><rect x="424" y="90" width="28" height="4" fill="#000"/><rect x="352" y="94" width="4" height="4" fill="#000"/><rect x="376" y="94" width="4" height="4" fill="#000"/><rect x="396" y="94" width="8" height="4" fill="#000"/><rect x="408" y="94" width="4" height="4" fill="#000"/><rect x="424" y="94" width="4" height="4" fill="#000"/><rect x="448" y="94" width="4" height="4" fill="#000"/><rect x="352" y="98" width="4" height="4" fill="#000"/><rect x="360" y="98" width="12" height="4" fill="#000"/><rect x="376" y="98" width="4" height="4" fill="#000"/><rect x="388" y="98" width="12" height="4" fill="#000"/><rect x="416" y="98" width="4" height="4" fill="#000"/><rect x="424" y="98" width="4" height="4" fill="#000"/><rect x="432" y="98" width="12" height="4" fill="#000"/><rect x="448" y="98" width="4" height="4" fill="#000"/><rect x="352" y="102" width="4" height="4" fill="#000"/><rect x="360" y="102" width="12" height="4" fill="#000"/><rect x="376" y="102" width="4" height="4" fill="#000"/><rect x="384" y="102" width="4" height="4" fill="#000"/><rect x="392" y="102" width="8" height="4" fill="#000"/><rect x="404" y="102" width="16" height="4" fill="#000"/><rect x="424" y="102" width="4" height="4" fill="#000"/><rect x="432" y="102" width="12" height="4" fill="#000"/><rect x="448" y="102" width="4" height="4" fill="#000"/><rect x="352" y="106" width="4" height="4" fill="#000"/><rect x="360" y="106" width="12" height="4" fill="#000"/><rect x="376" y="106" width="4" height="4" fill="#000"/><rect x="384" y="106" width="4" height="4" fill="#000"/><rect x="392" y="106" width="4" height="4" fill="#000"/><rect x="400" y="106" width="4" height="4" fill="#000"/><rect x="408" y="106" width="4" height="4" fill="#000"/><rect x="424" y="106" width="4" height="4" fill="#000"/><rect x="432" y="106" width="12" height="4" fill="#000"/><rect x="448" y="106" width="4" height="4" fill="#000"/><rect x="352" y="110" width="4" height="4" fill="#000"/><rect x="376" y="110" width="4" height="4" fill="#000"/><rect x="388" y="110" width="8" height="4" fill="#000"/><rect x="404" y="110" width="4" height="4" fill="#000"/><rect x="416" y="110" width="4" height="4" fill="#000"/><rect x="424" y="110" width="4" height="4" fill="#000"/><rect x="448" y="110" width="4" height="4" fill="#000"/><rect x="352" y="114" width="28" height="4" fill="#000"/><rect x="384" y="114" width="4" height="4" fill="#000"/><rect x="392" y="114" width="4" height="4" fill="#000"/><rect x="400" y="114" width="4" height="4" fill="#000"/><rect x="408" y="114" width="4" height="4" fill="#000"/><rect x="416" y="114" width="4" height="4" fill="#000"/><rect x="424" y="114" width="28" height="4" fill="#000"/><rect x="388" y="118" width="4" height="4" fill="#000"/><rect x="400" y="118" width="4" height="4" fill="#000"/><rect x="352" y="122" width="8" height="4" fill="#000"/><rect x="372" y="122" width="12" height="4" fill="#000"/><rect x="388" y="122" width="8" height="4" fill="#000"/><rect x="400" y="122" width="8" height="4" fill="#000"/><rect x="412" y="122" width="8" height="4" fill="#000"/><rect x="432" y="122" width="8" height="4" fill="#000"/><rect x="352" y="126" width="12" height="4" fill="#000"/><rect x="368" y="126" width="8" height="4" fill="#000"/><rect x="380" y="126" width="4" height="4" fill="#000"/><rect x="392" y="126" width="4" height="4" fill="#000"/><rect x="404" y="126" width="20" height="4" fill="#000"/><rect x="432" y="126" width="16" height="4" fill="#000"/><rect x="364" y="130" width="4" height="4" fill="#000"/><rect x="372" y="130" width="12" height="4" fill="#000"/><rect x="388" y="130" width="4" height="4" fill="#000"/><rect x="396" y="130" width="20" height="4" fill="#000"/><rect x="424" y="130" width="8" height="4" fill="#000"/><rect x="436" y="130" width="4" height="4" fill="#000"/><rect x="444" y="130" width="8" height="4" fill="#000"/><rect x="364" y="134" width="4" height="4" fill="#000"/><rect x="372" y="134" width="4" height="4" fill="#000"/><rect x="380" y="134" width="4" height="4" fill="#000"/><rect x="392" y="134" width="8" height="4" fill="#000"/><rect x="408" y="134" width="12" height="4" fill="#000"/><rect x="432" y="134" width="8" height="4" fill="#000"/><rect x="448" y="134" width="4" height="4" fill="#000"/><rect x="352" y="138" width="8" height="4" fill="#000"/><rect x="372" y="138" width="8" height="4" fill="#000"/><rect x="384" y="138" width="12" height="4" fill="#000"/><rect x="404" y="138" width="8" height="4" fill="#000"/><rect x="416" y="138" width="12" height="4" fill="#000"/><rect x="448" y="138" width="4" height="4" fill="#000"/><rect x="352" y="142" width="8" height="4" fill="#000"/><rect x="364" y="142" width="12" height="4" fill="#000"/><rect x="384" y="142" width="4" height="4" fill="#000"/><rect x="392" y="142" width="4" height="4" fill="#000"/><rect x="400" y="142" width="8" height="4" fill="#000"/><rect x="412" y="142" width="4" height="4" fill="#000"/><rect x="444" y="142" width="4" height="4" fill="#000"/><rect x="352" y="146" width="4" height="4" fill="#000"/><rect x="360" y="146" width="4" height="4" fill="#000"/><rect x="372" y="146" width="12" height="4" fill="#000"/><rect x="388" y="146" width="8" height="4" fill="#000"/><rect x="404" y="146" width="12" height="4" fill="#000"/><rect x="420" y="146" width="4" height="4" fill="#000"/><rect x="428" y="146" width="4" height="4" fill="#000"/><rect x="436" y="146" width="4" height="4" fill="#000"/><rect x="444" y="146" width="8" height="4" fill="#000"/><rect x="352" y="150" width="4" height="4" fill="#000"/><rect x="360" y="150" width="8" height="4" fill="#000"/><rect x="380" y="150" width="8" height="4" fill="#000"/><rect x="400" y="150" width="12" height="4" fill="#000"/><rect x="416" y="150" width="4" height="4" fill="#000"/><rect x="432" y="150" width="4" height="4" fill="#000"/><rect x="440" y="150" width="4" height="4" fill="#000"/><rect x="448" y="150" width="4" height="4" fill="#000"/><rect x="352" y="154" width="4" height="4" fill="#000"/><rect x="364" y="154" width="24" height="4" fill="#000"/><rect x="392" y="154" width="4" height="4" fill="#000"/><rect x="400" y="154" width="4" height="4" fill="#000"/><rect x="408" y="154" width="4" height="4" fill="#000"/><rect x="416" y="154" width="20" height="4" fill="#000"/><rect x="440" y="154" width="4" height="4" fill="#000"/><rect x="384" y="158" width="8" height="4" fill="#000"/><rect x="412" y="158" width="8" height="4" fill="#000"/><rect x="432" y="158" width="4" height="4" fill="#000"/><rect x="440" y="158" width="4" height="4" fill="#000"/><rect x="352" y="162" width="28" height="4" fill="#000"/><rect x="384" y="162" width="4" height="4" fill="#000"/><rect x="392" y="162" width="4" height="4" fill="#000"/><rect x="400" y="162" width="12" height="4" fill="#000"/><rect x="416" y="162" width="4" height="4" fill="#000"/><rect x="424" y="162" width="4" height="4" fill="#000"/><rect x="432" y="162" width="8" height="4" fill="#000"/><rect x="448" y="162" width="4" height="4" fill="#000"/><rect x="352" y="166" width="4" height="4" fill="#000"/><rect x="376" y="166" width="4" height="4" fill="#000"/><rect x="384" y="166" width="4" height="4" fill="#000"/><rect x="392" y="166" width="8" height="4" fill="#000"/><rect x="408" y="166" width="4" height="4" fill="#000"/><rect x="416" y="166" width="4" height="4" fill="#000"/><rect x="432" y="166" width="4" height="4" fill="#000"/><rect x="448" y="166" width="4" height="4" fill="#000"/><rect x="352" y="170" width="4" height="4" fill="#000"/><rect x="360" y="170" width="12" height="4" fill="#000"/><rect x="376" y="170" width="4" height="4" fill="#000"/><rect x="388" y="170" width="12" height="4" fill="#000"/><rect x="412" y="170" width="40" height="4" fill="#000"/><rect x="352" y="174" width="4" height="4" fill="#000"/><rect x="360" y="174" width="12" height="4" fill="#000"/><rect x="376" y="174" width="4" height="4" fill="#000"/><rect x="388" y="174" width="8" height="4" fill="#000"/><rect x="400" y="174" width="8" height="4" fill="#000"/><rect x="424" y="174" width="8" height="4" fill="#000"/><rect x="436" y="174" width="4" height="4" fill="#000"/><rect x="444" y="174" width="8" height="4" fill="#000"/><rect x="352" y="178" width="4" height="4" fill="#000"/><rect x="360" y="178" width="12" height="4" fill="#000"/><rect x="376" y="178" width="4" height="4" fill="#000"/><rect x="388" y="178" width="8" height="4" fill="#000"/><rect x="404" y="178" width="8" height="4" fill="#000"/><rect x="420" y="178" width="4" height="4" fill="#000"/><rect x="440" y="178" width="4" height="4" fill="#000"/><rect x="448" y="178" width="4" height="4" fill="#000"/><rect x="352" y="182" width="4" height="4" fill="#000"/><rect x="376" y="182" width="4" height="4" fill="#000"/><rect x="384" y="182" width="12" height="4" fill="#000"/><rect x="400" y="182" width="8" height="4" fill="#000"/><rect x="412" y="182" width="8" height="4" fill="#000"/><rect x="424" y="182" width="12" height="4" fill="#000"/><rect x="448" y="182" width="4" height="4" fill="#000"/><rect x="352" y="186" width="28" height="4" fill="#000"/><rect x="384" y="186" width="24" height="4" fill="#000"/><rect x="412" y="186" width="8" height="4" fill="#000"/><rect x="424" y="186" width="4" height="4" fill="#000"/><rect x="436" y="186" width="4" height="4" fill="#000"/><rect x="448" y="186" width="4" height="4" fill="#000"/>
</svg>